<svg width="15" height="13" viewBox="0 0 15 13" fill="none" xmlns="http://www.w3.org/2000/svg">
<path d="M0.503689 6.17062L3.70181 7.36314L4.94852 11.3743C5.00273 11.6453 5.32796 11.6996 5.54478 11.5369L7.33355 10.0734C7.49616 9.91078 7.76719 9.91078 7.98401 10.0734L11.1821 12.4042C11.3989 12.5668 11.7242 12.4584 11.7784 12.1874L14.1634 0.804307C14.2176 0.533281 13.9466 0.262257 13.6756 0.370668L0.503689 5.46596C0.178458 5.57437 0.178458 6.06221 0.503689 6.17062ZM4.78591 6.76688L11.0737 2.91831C11.1821 2.8641 11.2905 3.02672 11.1821 3.08093L6.03263 7.90519C5.87001 8.0678 5.70739 8.28462 5.70739 8.55565L5.54478 9.85658C5.54478 10.0192 5.27375 10.0734 5.21955 9.85658L4.56908 7.47155C4.40646 7.20052 4.51489 6.87529 4.78591 6.76688Z" fill="white"/>
</svg>
