<svg width="15" height="10" viewBox="0 0 15 10" fill="none" xmlns="http://www.w3.org/2000/svg">
<path d="M14.3736 8.4684C14.3736 8.41065 14.3159 8.41066 14.3159 8.35291C14.0849 7.89095 13.5652 7.3135 12.8723 6.67831C12.5258 6.38958 12.3525 6.1586 12.2371 6.04311C12.0638 5.81213 12.0638 5.6389 12.1216 5.40792C12.1793 5.23469 12.4103 4.94595 12.8145 4.42625C13.0455 4.13752 13.161 3.96429 13.3342 3.79106C14.2004 2.63616 14.6046 1.88547 14.4891 1.539L14.4314 1.48126C14.3736 1.42351 14.3159 1.36577 14.2004 1.36577C14.0849 1.30803 13.9117 1.30803 13.7384 1.36577H11.5441C11.4864 1.36577 11.4864 1.36577 11.3709 1.36577C11.3131 1.36577 11.2554 1.36577 11.2554 1.36577H11.1977H11.1399L11.0822 1.42351C11.0244 1.48126 11.0244 1.48125 11.0244 1.539C10.7934 2.17419 10.5047 2.6939 10.216 3.27135C10.0427 3.56007 9.86951 3.8488 9.69628 4.07978C9.52304 4.31076 9.40755 4.484 9.29206 4.59949C9.17657 4.71498 9.06108 4.77272 9.00333 4.88821C8.94559 4.94596 8.8301 5.0037 8.8301 4.94596C8.77236 4.94596 8.71461 4.94596 8.71461 4.88821C8.65686 4.83047 8.59912 4.77272 8.54138 4.71497C8.48363 4.65723 8.48363 4.54174 8.42588 4.42625C8.42588 4.31076 8.42588 4.19527 8.42588 4.13752C8.42588 4.07978 8.42588 3.90655 8.42588 3.79106C8.42588 3.61782 8.42588 3.50233 8.42588 3.44459C8.42588 3.27135 8.42588 3.04038 8.42588 2.8094C8.42588 2.57842 8.42588 2.40518 8.42588 2.28969C8.42588 2.1742 8.42588 2.00096 8.42588 1.88547C8.42588 1.71224 8.42588 1.59674 8.42588 1.539C8.42588 1.48125 8.36815 1.36577 8.36815 1.30802C8.31041 1.25028 8.25265 1.19253 8.19491 1.13479C8.13716 1.07704 8.02167 1.07704 7.96393 1.0193C7.6752 0.961552 7.32874 0.903809 6.92453 0.903809C6.00061 0.903809 5.36541 0.961555 5.13443 1.07705C5.01894 1.13479 4.90345 1.19253 4.8457 1.30802C4.73021 1.42351 4.73021 1.48126 4.78795 1.48126C5.07668 1.539 5.30766 1.65449 5.42315 1.82772L5.4809 1.94322C5.53865 2.00097 5.53864 2.11645 5.59638 2.28969C5.65413 2.46292 5.65413 2.63616 5.65413 2.86714C5.65413 3.21361 5.65413 3.56008 5.65413 3.79106C5.65413 4.07978 5.59638 4.25301 5.59638 4.42625C5.59638 4.59948 5.53865 4.71498 5.4809 4.77272C5.42316 4.88821 5.42315 4.94596 5.3654 4.94596C5.3654 4.94596 5.3654 5.0037 5.30766 5.0037C5.24991 5.0037 5.19217 5.06145 5.07668 5.06145C5.01893 5.06145 4.90345 5.0037 4.8457 4.94596C4.73021 4.88821 4.61472 4.77272 4.55698 4.65723C4.44149 4.54174 4.32599 4.3685 4.2105 4.13752C4.09501 3.90654 3.92177 3.67557 3.80628 3.3291L3.6908 3.09812C3.63306 2.98263 3.51757 2.75165 3.40208 2.46292C3.28659 2.1742 3.17109 1.94322 3.0556 1.6545C2.99786 1.53901 2.94012 1.48126 2.88238 1.42351H2.82463C2.82463 1.42351 2.76688 1.36577 2.70913 1.36577C2.65139 1.36577 2.59365 1.30802 2.5359 1.30802H0.457079C0.226099 1.30802 0.110611 1.36577 0.0528657 1.42351L-0.00488281 1.48126C-0.00488281 1.48126 -0.00488281 1.539 -0.00488281 1.59675C-0.00488281 1.65449 -0.00487929 1.71223 0.0528657 1.82772C0.341591 2.52066 0.688059 3.21361 1.03453 3.90655C1.381 4.54174 1.72747 5.11919 1.95845 5.52341C2.24718 5.92762 2.47815 6.33184 2.76688 6.67831C3.0556 7.02478 3.22884 7.25576 3.28658 7.37125C3.40207 7.48674 3.45981 7.54448 3.51756 7.60222L3.6908 7.77546C3.80629 7.89095 3.97952 8.06419 4.2105 8.23742C4.44148 8.41066 4.73021 8.58389 5.01893 8.75712C5.30766 8.93036 5.65413 9.04586 6.0006 9.16135C6.40482 9.27684 6.75128 9.33458 7.09775 9.27683H7.96393C8.13716 9.27683 8.25266 9.21909 8.36815 9.1036L8.42588 9.04585C8.42588 8.9881 8.48363 8.98811 8.48363 8.93036C8.48363 8.87262 8.48363 8.81487 8.48363 8.69938C8.48363 8.4684 8.48363 8.29517 8.54138 8.12193C8.59912 7.9487 8.59913 7.83321 8.65688 7.71772C8.71462 7.60223 8.77236 7.54448 8.8301 7.48674C8.88785 7.42899 8.9456 7.37125 8.9456 7.37125H9.00333C9.11882 7.3135 9.29206 7.37125 9.40755 7.48674C9.58079 7.60223 9.75402 7.77546 9.86951 7.9487C9.985 8.12193 10.1582 8.29517 10.3892 8.52615C10.6202 8.75713 10.7934 8.93036 10.9089 8.98811L11.0822 9.1036C11.1976 9.16134 11.3131 9.21909 11.4864 9.27683C11.6596 9.33458 11.7751 9.33457 11.8906 9.33457L13.8539 9.27683C14.0272 9.27683 14.2004 9.21909 14.3159 9.16135C14.4314 9.1036 14.4891 9.04585 14.4891 8.93036C14.4891 8.87262 14.4891 8.75713 14.4891 8.69938C14.3736 8.58389 14.3736 8.52614 14.3736 8.4684Z" fill="white"/>
</svg>
