<svg width="16" height="15" viewBox="0 0 16 15" fill="none" xmlns="http://www.w3.org/2000/svg">
<path d="M13.245 2.38983C11.8709 1.0205 10.0388 0.259766 8.10488 0.259766C4.08438 0.259766 0.827259 3.50558 0.827259 7.51212C0.827259 8.78002 1.18351 10.0479 1.79422 11.1129L0.776367 14.8659L4.6442 13.8516C5.71294 14.4095 6.88346 14.7138 8.10488 14.7138C12.1254 14.7138 15.3825 11.468 15.3825 7.46141C15.3316 5.58492 14.6191 3.75915 13.245 2.38983ZM11.6165 10.0986C11.4638 10.5044 10.7513 10.9101 10.395 10.9608C10.0897 11.0115 9.68255 11.0115 9.27541 10.9101C9.02095 10.8086 8.6647 10.7072 8.25756 10.5044C6.42543 9.74362 5.25491 7.91785 5.15312 7.7657C5.05134 7.66427 4.38974 6.8021 4.38974 5.88922C4.38974 4.97633 4.84777 4.57061 5.00044 4.36774C5.15312 4.16488 5.35669 4.16488 5.50937 4.16488C5.61115 4.16488 5.76383 4.16488 5.86561 4.16488C5.9674 4.16488 6.12008 4.11416 6.27276 4.46917C6.42543 4.82419 6.78168 5.73707 6.83257 5.78779C6.88346 5.88922 6.88346 5.99065 6.83257 6.09208C6.78168 6.19351 6.73079 6.29494 6.629 6.39637C6.52722 6.49781 6.42543 6.64995 6.37454 6.70067C6.27275 6.8021 6.17097 6.90353 6.27276 7.05568C6.37454 7.25854 6.73079 7.81642 7.29061 8.32357C8.0031 8.93216 8.56292 9.13503 8.76649 9.23646C8.97006 9.33789 9.07184 9.28717 9.17363 9.18574C9.27541 9.08431 9.63166 8.67859 9.73345 8.47572C9.83523 8.27286 9.98791 8.32358 10.1406 8.37429C10.2933 8.42501 11.2093 8.88145 11.362 8.98288C11.5656 9.08431 11.6674 9.13503 11.7183 9.18574C11.7691 9.33789 11.7691 9.6929 11.6165 10.0986Z" fill="white"/>
</svg>
